<svg width="52" height="52" viewBox="0 0 52 52" fill="none" xmlns="http://www.w3.org/2000/svg">
<path d="M0 26C0 11.6406 11.6406 0 26 0C40.3594 0 52 11.6406 52 26C52 40.3594 40.3594 52 26 52C11.6406 52 0 40.3594 0 26Z" fill="white"/>
<g clip-path="url(#clip0_5_48)">
<path d="M31.8081 28.194L32.5013 23.7239H28.167V20.8231C28.167 19.6002 28.7724 18.4081 30.7137 18.4081H32.6841V14.6023C32.6841 14.6023 30.896 14.3003 29.1863 14.3003C25.6169 14.3003 23.2837 16.4413 23.2837 20.3171V23.7239H19.3159V28.194H23.2837V39.0003H28.167V28.194H31.8081Z" fill="black"/>
</g>
<defs>
<clipPath id="clip0_5_48">
<rect width="15.6" height="24.7" fill="white" transform="translate(18.2 14.3003)"/>
</clipPath>
</defs>
</svg>
