<svg width="52" height="52" viewBox="0 0 52 52" fill="none" xmlns="http://www.w3.org/2000/svg">
<path d="M0 26C0 11.6406 11.6406 0 26 0C40.3594 0 52 11.6406 52 26C52 40.3594 40.3594 52 26 52C11.6406 52 0 40.3594 0 26Z" fill="white"/>
<g clip-path="url(#clip0_5_51)">
<path d="M26.0046 20.744C23.0517 20.744 20.6699 23.0886 20.6699 25.9953C20.6699 28.902 23.0517 31.2466 26.0046 31.2466C28.9574 31.2466 31.3392 28.902 31.3392 25.9953C31.3392 23.0886 28.9574 20.744 26.0046 20.744ZM26.0046 29.4093C24.0963 29.4093 22.5363 27.8783 22.5363 25.9953C22.5363 24.1124 24.0917 22.5813 26.0046 22.5813C27.9174 22.5813 29.4728 24.1124 29.4728 25.9953C29.4728 27.8783 27.9128 29.4093 26.0046 29.4093ZM32.8017 20.5292C32.8017 21.2102 32.2446 21.7541 31.5574 21.7541C30.8656 21.7541 30.3131 21.2056 30.3131 20.5292C30.3131 19.8528 30.8703 19.3044 31.5574 19.3044C32.2446 19.3044 32.8017 19.8528 32.8017 20.5292ZM36.3349 21.7724C36.256 20.1316 35.8753 18.6783 34.6542 17.4808C33.4378 16.2834 31.9614 15.9086 30.2946 15.8264C28.5767 15.7304 23.4278 15.7304 21.7099 15.8264C20.0478 15.9041 18.5713 16.2788 17.3503 17.4763C16.1292 18.6737 15.7531 20.127 15.6696 21.7678C15.5721 23.4588 15.5721 28.5273 15.6696 30.2183C15.7485 31.859 16.1292 33.3124 17.3503 34.5098C18.5713 35.7072 20.0431 36.082 21.7099 36.1643C23.4278 36.2602 28.5767 36.2602 30.2946 36.1643C31.9614 36.0866 33.4378 35.7118 34.6542 34.5098C35.8706 33.3124 36.2514 31.859 36.3349 30.2183C36.4324 28.5273 36.4324 23.4634 36.3349 21.7724ZM34.1156 32.0327C33.7535 32.9285 33.0524 33.6186 32.1378 33.9797C30.7681 34.5144 27.5181 34.391 26.0046 34.391C24.491 34.391 21.2363 34.5098 19.8713 33.9797C18.9613 33.6232 18.2603 32.9331 17.8935 32.0327C17.3503 30.6845 17.4756 27.4852 17.4756 25.9953C17.4756 24.5054 17.3549 21.3016 17.8935 19.9579C18.2556 19.0622 18.9567 18.372 19.8713 18.011C21.241 17.4763 24.491 17.5997 26.0046 17.5997C27.5181 17.5997 30.7728 17.4808 32.1378 18.011C33.0478 18.3675 33.7489 19.0576 34.1156 19.9579C34.6589 21.3062 34.5335 24.5054 34.5335 25.9953C34.5335 27.4852 34.6589 30.689 34.1156 32.0327Z" fill="black"/>
</g>
<defs>
<clipPath id="clip0_5_51">
<rect width="20.8" height="23.4" fill="white" transform="translate(15.6 14.3003)"/>
</clipPath>
</defs>
</svg>
