<svg width="52" height="52" viewBox="0 0 52 52" fill="none" xmlns="http://www.w3.org/2000/svg">
<path d="M0 26C0 11.6406 11.6406 0 26 0C40.3594 0 52 11.6406 52 26C52 40.3594 40.3594 52 26 52C11.6406 52 0 40.3594 0 26Z" fill="white"/>
<g clip-path="url(#clip0_5_53)">
<path d="M35.2948 21.4738C35.3096 21.6745 35.3096 21.8753 35.3096 22.076C35.3096 28.1984 30.4841 35.2528 21.6645 35.2528C18.9474 35.2528 16.4233 34.4929 14.3 33.1738C14.6861 33.2168 15.0573 33.2312 15.4582 33.2312C17.7001 33.2312 19.764 32.4999 21.4121 31.2525C19.3037 31.2095 17.5368 29.876 16.9281 28.0407C17.2251 28.0837 17.522 28.1124 17.8338 28.1124C18.2644 28.1124 18.695 28.055 19.0959 27.9547C16.8984 27.5245 15.2503 25.6606 15.2503 23.4095V23.3521C15.8887 23.6962 16.6311 23.9113 17.418 23.94C16.1263 23.1083 15.28 21.6889 15.28 20.083C15.28 19.2227 15.5175 18.4341 15.9333 17.7458C18.2941 20.5561 21.8427 22.3914 25.8219 22.5922C25.7476 22.248 25.7031 21.8896 25.7031 21.5312C25.7031 18.9789 27.8412 16.8999 30.4989 16.8999C31.8797 16.8999 33.1269 17.4591 34.003 18.3624C35.0868 18.1617 36.1262 17.7745 37.0468 17.244C36.6904 18.3194 35.9332 19.2227 34.9384 19.7962C35.9035 19.6959 36.8389 19.4377 37.7 19.0793C37.0469 19.9969 36.2302 20.8142 35.2948 21.4738Z" fill="black"/>
</g>
<defs>
<clipPath id="clip0_5_53">
<rect width="23.4" height="19.5" fill="white" transform="translate(14.3 16.8999)"/>
</clipPath>
</defs>
</svg>
